<svg xmlns="http://www.w3.org/2000/svg" viewBox="0 0 100 100">
  <defs>
    <linearGradient id="g" x1="0%" y1="0%" x2="100%" y2="100%">
      <stop offset="0%" stop-color="#8b5cf6"/>
      <stop offset="100%" stop-color="#f59e0b"/>
    </linearGradient>
  </defs>
  <rect width="100" height="100" rx="22" fill="#0a0a0f"/>
  <g transform="translate(50,50) scale(0.075924,-0.075924) translate(-533.5,-225.0)">
    <path d="M522 178Q522 138 503 116Q466 71 398.5 33.0Q331 -5 254 -5Q149 -5 91.0 52.0Q33 109 33 208Q33 277 62.0 336.5Q91 396 142.5 431.0Q194 466 259 466Q317 466 352.0 431.5Q387 397 387 338Q387 269 337.5 219.5Q288 170 170 141Q195 95 265 95Q310 95 367.5 126.5Q425 158 467 209Q479 223 494 223Q507 223 514.5 211.0Q522 199 522 178ZM154 221V219Q213 233 247.0 261.0Q281 289 281 326Q281 345 270.5 356.5Q260 368 242 368Q205 368 179.5 325.0Q154 282 154 221ZM520 51Q520 77 539.0 96.0Q558 115 595 115Q608 115 625.5 112.5Q643 110 652 109Q651 135 640.5 158.0Q630 181 614.0 202.5Q598 224 584 240Q553 181 522.5 142.0Q492 103 456 68Q438 50 418 50Q402 50 392.0 61.5Q382 73 382 90Q382 110 396 127L409 143Q464 211 492 255Q509 284 532.0 332.5Q555 381 577 433Q596 477 656 477Q684 477 695.0 472.0Q706 467 706 456Q706 450 702.0 437.0Q698 424 691 411Q673 375 673 350Q673 335 683.5 317.0Q694 299 716 272Q748 230 764.5 200.5Q781 171 781 136Q781 126 779 108Q828 127 894 209Q906 223 921 223Q934 223 941.5 211.0Q949 199 949 178Q949 140 930 116Q880 54 834.5 31.5Q789 9 722 7Q682 -27 627 -27Q575 -27 547.5 -3.0Q520 21 520 51ZM848 82Q848 127 873.5 154.0Q899 181 945 181Q989 181 1011.5 159.5Q1034 138 1034 96Q1034 50 1008.0 22.5Q982 -5 937 -5Q893 -5 870.5 19.0Q848 43 848 82Z" fill="url(#g)"/>
  </g>
</svg>
